<mxfile host="Electron" agent="Mozilla/5.0 (Windows NT 10.0; Win64; x64) AppleWebKit/537.36 (KHTML, like Gecko) draw.io/24.7.17 Chrome/128.0.6613.36 Electron/32.0.1 Safari/537.36" version="24.7.17">
  <diagram name="Page-1" id="e-pD4XbrYedEOlAOlbi6">
    <mxGraphModel dx="869" dy="518" grid="1" gridSize="10" guides="1" tooltips="1" connect="1" arrows="1" fold="1" page="1" pageScale="1" pageWidth="827" pageHeight="1169" math="0" shadow="0">
      <root>
        <mxCell id="0" />
        <mxCell id="1" parent="0" />
        <mxCell id="6tl0_UV2vyWzfa311lcC-17" style="rounded=0;orthogonalLoop=1;jettySize=auto;html=1;exitX=0;exitY=0.5;exitDx=0;exitDy=0;entryX=1;entryY=0.5;entryDx=0;entryDy=0;endArrow=none;endFill=0;labelBackgroundColor=none;strokeColor=#457B9D;fontColor=default;" parent="1" source="6tl0_UV2vyWzfa311lcC-1" target="6tl0_UV2vyWzfa311lcC-2" edge="1">
          <mxGeometry relative="1" as="geometry" />
        </mxCell>
        <mxCell id="6tl0_UV2vyWzfa311lcC-18" style="rounded=0;orthogonalLoop=1;jettySize=auto;html=1;exitX=0;exitY=0.5;exitDx=0;exitDy=0;entryX=1;entryY=0.5;entryDx=0;entryDy=0;endArrow=none;endFill=0;labelBackgroundColor=none;strokeColor=#457B9D;fontColor=default;" parent="1" source="6tl0_UV2vyWzfa311lcC-1" target="6tl0_UV2vyWzfa311lcC-3" edge="1">
          <mxGeometry relative="1" as="geometry" />
        </mxCell>
        <mxCell id="6tl0_UV2vyWzfa311lcC-19" style="rounded=0;orthogonalLoop=1;jettySize=auto;html=1;exitX=0;exitY=0.5;exitDx=0;exitDy=0;entryX=1;entryY=0.5;entryDx=0;entryDy=0;endArrow=none;endFill=0;labelBackgroundColor=none;strokeColor=#457B9D;fontColor=default;" parent="1" source="6tl0_UV2vyWzfa311lcC-1" target="6tl0_UV2vyWzfa311lcC-4" edge="1">
          <mxGeometry relative="1" as="geometry" />
        </mxCell>
        <mxCell id="6tl0_UV2vyWzfa311lcC-20" style="rounded=0;orthogonalLoop=1;jettySize=auto;html=1;exitX=0;exitY=0.5;exitDx=0;exitDy=0;entryX=1;entryY=0.5;entryDx=0;entryDy=0;endArrow=none;endFill=0;labelBackgroundColor=none;strokeColor=#457B9D;fontColor=default;" parent="1" source="6tl0_UV2vyWzfa311lcC-1" target="6tl0_UV2vyWzfa311lcC-8" edge="1">
          <mxGeometry relative="1" as="geometry" />
        </mxCell>
        <mxCell id="6tl0_UV2vyWzfa311lcC-52" style="edgeStyle=orthogonalEdgeStyle;rounded=0;orthogonalLoop=1;jettySize=auto;html=1;exitX=0.5;exitY=0;exitDx=0;exitDy=0;entryX=0.5;entryY=1;entryDx=0;entryDy=0;endArrow=none;endFill=0;labelBackgroundColor=none;strokeColor=#457B9D;fontColor=default;" parent="1" source="6tl0_UV2vyWzfa311lcC-1" target="6tl0_UV2vyWzfa311lcC-50" edge="1">
          <mxGeometry relative="1" as="geometry" />
        </mxCell>
        <mxCell id="6tl0_UV2vyWzfa311lcC-1" value="User" style="whiteSpace=wrap;html=1;align=center;rounded=0;labelBackgroundColor=none;fillColor=#d80073;strokeColor=#A50040;fontColor=#ffffff;" parent="1" vertex="1">
          <mxGeometry x="229" y="295" width="100" height="40" as="geometry" />
        </mxCell>
        <mxCell id="6tl0_UV2vyWzfa311lcC-2" value="username" style="ellipse;whiteSpace=wrap;html=1;align=center;fontStyle=4;rounded=0;labelBackgroundColor=none;fillColor=#6a00ff;strokeColor=#3700CC;fontColor=#ffffff;" parent="1" vertex="1">
          <mxGeometry x="54" y="220" width="100" height="40" as="geometry" />
        </mxCell>
        <mxCell id="6tl0_UV2vyWzfa311lcC-3" value="email" style="ellipse;whiteSpace=wrap;html=1;align=center;fontStyle=4;rounded=0;labelBackgroundColor=none;fillColor=#6a00ff;strokeColor=#3700CC;fontColor=#ffffff;" parent="1" vertex="1">
          <mxGeometry x="54" y="270" width="101" height="40" as="geometry" />
        </mxCell>
        <mxCell id="6tl0_UV2vyWzfa311lcC-4" value="password" style="ellipse;whiteSpace=wrap;html=1;align=center;rounded=0;labelBackgroundColor=none;fillColor=#60a917;strokeColor=#2D7600;fontColor=#ffffff;" parent="1" vertex="1">
          <mxGeometry x="54" y="320" width="100" height="40" as="geometry" />
        </mxCell>
        <mxCell id="6tl0_UV2vyWzfa311lcC-8" value="pfp" style="ellipse;whiteSpace=wrap;html=1;align=center;rounded=0;labelBackgroundColor=none;fillColor=#60a917;strokeColor=#2D7600;fontColor=#ffffff;" parent="1" vertex="1">
          <mxGeometry x="54.5" y="370" width="100" height="40" as="geometry" />
        </mxCell>
        <mxCell id="6tl0_UV2vyWzfa311lcC-14" style="rounded=0;orthogonalLoop=1;jettySize=auto;html=1;exitX=0;exitY=0.5;exitDx=0;exitDy=0;entryX=1;entryY=0.5;entryDx=0;entryDy=0;labelBackgroundColor=none;strokeColor=#457B9D;fontColor=default;" parent="1" source="peprseL-71aU9R8MaZxs-58" target="6tl0_UV2vyWzfa311lcC-1" edge="1">
          <mxGeometry relative="1" as="geometry">
            <mxPoint x="374" y="315" as="sourcePoint" />
          </mxGeometry>
        </mxCell>
        <mxCell id="peprseL-71aU9R8MaZxs-129" value="1" style="edgeLabel;html=1;align=center;verticalAlign=middle;resizable=0;points=[];strokeColor=#457B9D;fontFamily=Helvetica;fontSize=11;fontColor=default;labelBackgroundColor=none;fillColor=#A8DADC;" parent="6tl0_UV2vyWzfa311lcC-14" vertex="1" connectable="0">
          <mxGeometry x="0.0568" y="1" relative="1" as="geometry">
            <mxPoint as="offset" />
          </mxGeometry>
        </mxCell>
        <mxCell id="peprseL-71aU9R8MaZxs-2" style="rounded=0;orthogonalLoop=1;jettySize=auto;html=1;exitX=0.5;exitY=0;exitDx=0;exitDy=0;entryX=0.5;entryY=1;entryDx=0;entryDy=0;endArrow=none;endFill=0;labelBackgroundColor=none;strokeColor=#457B9D;fontColor=default;" parent="1" source="6tl0_UV2vyWzfa311lcC-11" target="peprseL-71aU9R8MaZxs-1" edge="1">
          <mxGeometry relative="1" as="geometry" />
        </mxCell>
        <mxCell id="peprseL-71aU9R8MaZxs-12" style="rounded=0;orthogonalLoop=1;jettySize=auto;html=1;entryX=0.5;entryY=0;entryDx=0;entryDy=0;endArrow=classic;endFill=1;exitX=0.5;exitY=1;exitDx=0;exitDy=0;labelBackgroundColor=none;strokeColor=#457B9D;fontColor=default;" parent="1" source="peprseL-71aU9R8MaZxs-59" target="peprseL-71aU9R8MaZxs-11" edge="1">
          <mxGeometry relative="1" as="geometry">
            <mxPoint x="506" y="486" as="sourcePoint" />
          </mxGeometry>
        </mxCell>
        <mxCell id="peprseL-71aU9R8MaZxs-132" value="1" style="edgeLabel;html=1;align=center;verticalAlign=middle;resizable=0;points=[];strokeColor=#457B9D;fontFamily=Helvetica;fontSize=11;fontColor=default;labelBackgroundColor=none;fillColor=#A8DADC;" parent="peprseL-71aU9R8MaZxs-12" vertex="1" connectable="0">
          <mxGeometry x="-0.0605" relative="1" as="geometry">
            <mxPoint as="offset" />
          </mxGeometry>
        </mxCell>
        <mxCell id="peprseL-71aU9R8MaZxs-117" style="edgeStyle=none;rounded=0;orthogonalLoop=1;jettySize=auto;html=1;exitX=1;exitY=0.5;exitDx=0;exitDy=0;entryX=0;entryY=0.5;entryDx=0;entryDy=0;strokeColor=#457B9D;align=center;verticalAlign=middle;fontFamily=Helvetica;fontSize=11;fontColor=default;labelBackgroundColor=none;endArrow=classic;endFill=1;" parent="1" source="peprseL-71aU9R8MaZxs-116" target="peprseL-71aU9R8MaZxs-115" edge="1">
          <mxGeometry relative="1" as="geometry" />
        </mxCell>
        <mxCell id="peprseL-71aU9R8MaZxs-135" value="1" style="edgeLabel;html=1;align=center;verticalAlign=middle;resizable=0;points=[];strokeColor=#457B9D;fontFamily=Helvetica;fontSize=11;fontColor=default;labelBackgroundColor=none;fillColor=#A8DADC;" parent="peprseL-71aU9R8MaZxs-117" vertex="1" connectable="0">
          <mxGeometry x="-0.023" relative="1" as="geometry">
            <mxPoint as="offset" />
          </mxGeometry>
        </mxCell>
        <mxCell id="GAKkH_xGqtzqrPNIRhfc-14" style="edgeStyle=none;shape=connector;rounded=0;orthogonalLoop=1;jettySize=auto;html=1;exitX=1;exitY=0.5;exitDx=0;exitDy=0;entryX=0;entryY=0;entryDx=0;entryDy=0;strokeColor=#457B9D;align=center;verticalAlign=middle;fontFamily=Helvetica;fontSize=11;fontColor=default;labelBackgroundColor=none;endArrow=classic;endFill=1;startArrow=none;startFill=0;" edge="1" parent="1" source="GAKkH_xGqtzqrPNIRhfc-15" target="GAKkH_xGqtzqrPNIRhfc-7">
          <mxGeometry relative="1" as="geometry" />
        </mxCell>
        <mxCell id="GAKkH_xGqtzqrPNIRhfc-17" value="1" style="edgeLabel;html=1;align=center;verticalAlign=middle;resizable=0;points=[];fontFamily=Helvetica;fontSize=11;fontColor=default;labelBackgroundColor=none;" vertex="1" connectable="0" parent="GAKkH_xGqtzqrPNIRhfc-14">
          <mxGeometry x="0.6382" y="4" relative="1" as="geometry">
            <mxPoint as="offset" />
          </mxGeometry>
        </mxCell>
        <mxCell id="6tl0_UV2vyWzfa311lcC-11" value="Character" style="whiteSpace=wrap;html=1;align=center;rounded=0;labelBackgroundColor=none;fillColor=#d80073;strokeColor=#A50040;fontColor=#ffffff;" parent="1" vertex="1">
          <mxGeometry x="650" y="330" width="100" height="40" as="geometry" />
        </mxCell>
        <mxCell id="6tl0_UV2vyWzfa311lcC-15" value="" style="rounded=0;orthogonalLoop=1;jettySize=auto;html=1;exitX=0;exitY=0.5;exitDx=0;exitDy=0;entryX=1;entryY=0.5;entryDx=0;entryDy=0;endArrow=none;endFill=0;labelBackgroundColor=none;strokeColor=#457B9D;fontColor=default;" parent="1" source="6tl0_UV2vyWzfa311lcC-11" target="peprseL-71aU9R8MaZxs-58" edge="1">
          <mxGeometry relative="1" as="geometry">
            <mxPoint x="634" y="315" as="sourcePoint" />
            <mxPoint x="494" y="315" as="targetPoint" />
          </mxGeometry>
        </mxCell>
        <mxCell id="peprseL-71aU9R8MaZxs-130" value="N" style="edgeLabel;html=1;align=center;verticalAlign=middle;resizable=0;points=[];strokeColor=#457B9D;fontFamily=Helvetica;fontSize=11;fontColor=default;labelBackgroundColor=none;fillColor=#A8DADC;" parent="6tl0_UV2vyWzfa311lcC-15" vertex="1" connectable="0">
          <mxGeometry x="-0.0853" y="1" relative="1" as="geometry">
            <mxPoint as="offset" />
          </mxGeometry>
        </mxCell>
        <mxCell id="6tl0_UV2vyWzfa311lcC-50" value="id" style="ellipse;whiteSpace=wrap;html=1;align=center;rounded=0;labelBackgroundColor=none;fillColor=#6a00ff;strokeColor=#3700CC;fontColor=#ffffff;fontStyle=4" parent="1" vertex="1">
          <mxGeometry x="229" y="230" width="100" height="40" as="geometry" />
        </mxCell>
        <mxCell id="peprseL-71aU9R8MaZxs-1" value="id" style="ellipse;whiteSpace=wrap;html=1;align=center;fontStyle=4;rounded=0;labelBackgroundColor=none;fillColor=#6a00ff;strokeColor=#3700CC;fontColor=#ffffff;" parent="1" vertex="1">
          <mxGeometry x="560" y="220" width="100" height="40" as="geometry" />
        </mxCell>
        <mxCell id="peprseL-71aU9R8MaZxs-88" style="edgeStyle=none;rounded=0;orthogonalLoop=1;jettySize=auto;html=1;exitX=0.5;exitY=1;exitDx=0;exitDy=0;entryX=0.5;entryY=0;entryDx=0;entryDy=0;endArrow=none;endFill=0;labelBackgroundColor=none;strokeColor=#457B9D;fontColor=default;" parent="1" source="peprseL-71aU9R8MaZxs-3" target="peprseL-71aU9R8MaZxs-87" edge="1">
          <mxGeometry relative="1" as="geometry" />
        </mxCell>
        <mxCell id="peprseL-71aU9R8MaZxs-3" value="name" style="ellipse;whiteSpace=wrap;html=1;align=center;rounded=0;labelBackgroundColor=none;fillColor=#60a917;strokeColor=#2D7600;fontColor=#ffffff;" parent="1" vertex="1">
          <mxGeometry x="675" y="100" width="100" height="40" as="geometry" />
        </mxCell>
        <mxCell id="peprseL-71aU9R8MaZxs-89" style="edgeStyle=none;rounded=0;orthogonalLoop=1;jettySize=auto;html=1;exitX=0.5;exitY=1;exitDx=0;exitDy=0;endArrow=none;endFill=0;labelBackgroundColor=none;strokeColor=#457B9D;fontColor=default;" parent="1" source="peprseL-71aU9R8MaZxs-4" edge="1">
          <mxGeometry relative="1" as="geometry">
            <mxPoint x="774.8571428571429" y="180" as="targetPoint" />
          </mxGeometry>
        </mxCell>
        <mxCell id="peprseL-71aU9R8MaZxs-4" value="nation" style="ellipse;whiteSpace=wrap;html=1;align=center;rounded=0;labelBackgroundColor=none;fillColor=#60a917;strokeColor=#2D7600;fontColor=#ffffff;" parent="1" vertex="1">
          <mxGeometry x="725" y="50" width="100" height="40" as="geometry" />
        </mxCell>
        <mxCell id="peprseL-71aU9R8MaZxs-91" style="edgeStyle=none;rounded=0;orthogonalLoop=1;jettySize=auto;html=1;exitX=0.5;exitY=1;exitDx=0;exitDy=0;entryX=0.5;entryY=0;entryDx=0;entryDy=0;endArrow=none;endFill=0;labelBackgroundColor=none;strokeColor=#457B9D;fontColor=default;" parent="1" source="peprseL-71aU9R8MaZxs-5" target="peprseL-71aU9R8MaZxs-87" edge="1">
          <mxGeometry relative="1" as="geometry" />
        </mxCell>
        <mxCell id="peprseL-71aU9R8MaZxs-5" value="level" style="ellipse;whiteSpace=wrap;html=1;align=center;rounded=0;labelBackgroundColor=none;fillColor=#60a917;strokeColor=#2D7600;fontColor=#ffffff;" parent="1" vertex="1">
          <mxGeometry x="865" y="110" width="100" height="40" as="geometry" />
        </mxCell>
        <mxCell id="peprseL-71aU9R8MaZxs-90" style="edgeStyle=none;rounded=0;orthogonalLoop=1;jettySize=auto;html=1;exitX=0.5;exitY=1;exitDx=0;exitDy=0;entryX=0.5;entryY=0;entryDx=0;entryDy=0;endArrow=none;endFill=0;labelBackgroundColor=none;strokeColor=#457B9D;fontColor=default;" parent="1" source="peprseL-71aU9R8MaZxs-6" target="peprseL-71aU9R8MaZxs-87" edge="1">
          <mxGeometry relative="1" as="geometry" />
        </mxCell>
        <mxCell id="peprseL-71aU9R8MaZxs-6" value="path" style="ellipse;whiteSpace=wrap;html=1;align=center;rounded=0;labelBackgroundColor=none;fillColor=#60a917;strokeColor=#2D7600;fontColor=#ffffff;" parent="1" vertex="1">
          <mxGeometry x="835" y="50" width="100" height="40" as="geometry" />
        </mxCell>
        <mxCell id="peprseL-71aU9R8MaZxs-62" style="rounded=0;orthogonalLoop=1;jettySize=auto;html=1;exitX=1;exitY=0;exitDx=0;exitDy=0;entryX=0.5;entryY=1;entryDx=0;entryDy=0;endArrow=none;endFill=0;labelBackgroundColor=none;strokeColor=#457B9D;fontColor=default;" parent="1" source="peprseL-71aU9R8MaZxs-11" target="peprseL-71aU9R8MaZxs-61" edge="1">
          <mxGeometry relative="1" as="geometry" />
        </mxCell>
        <mxCell id="peprseL-71aU9R8MaZxs-64" style="rounded=0;orthogonalLoop=1;jettySize=auto;html=1;exitX=0;exitY=0;exitDx=0;exitDy=0;entryX=0.5;entryY=1;entryDx=0;entryDy=0;endArrow=none;endFill=0;labelBackgroundColor=none;strokeColor=#457B9D;fontColor=default;" parent="1" source="peprseL-71aU9R8MaZxs-11" target="peprseL-71aU9R8MaZxs-63" edge="1">
          <mxGeometry relative="1" as="geometry" />
        </mxCell>
        <mxCell id="peprseL-71aU9R8MaZxs-11" value="Stats" style="whiteSpace=wrap;html=1;align=center;rounded=0;labelBackgroundColor=none;fillColor=#d80073;strokeColor=#A50040;fontColor=#ffffff;" parent="1" vertex="1">
          <mxGeometry x="494" y="650" width="100" height="40" as="geometry" />
        </mxCell>
        <mxCell id="peprseL-71aU9R8MaZxs-14" value="" style="rounded=0;orthogonalLoop=1;jettySize=auto;html=1;exitX=0.5;exitY=1;exitDx=0;exitDy=0;endArrow=none;endFill=0;startArrow=classic;startFill=1;entryX=0.5;entryY=0;entryDx=0;entryDy=0;labelBackgroundColor=none;strokeColor=#457B9D;fontColor=default;" parent="1" source="6tl0_UV2vyWzfa311lcC-11" target="peprseL-71aU9R8MaZxs-59" edge="1">
          <mxGeometry relative="1" as="geometry">
            <mxPoint x="534" y="335" as="sourcePoint" />
            <mxPoint x="390" y="360" as="targetPoint" />
          </mxGeometry>
        </mxCell>
        <mxCell id="peprseL-71aU9R8MaZxs-131" value="1" style="edgeLabel;html=1;align=center;verticalAlign=middle;resizable=0;points=[];strokeColor=#457B9D;fontFamily=Helvetica;fontSize=11;fontColor=default;labelBackgroundColor=none;fillColor=#A8DADC;" parent="peprseL-71aU9R8MaZxs-14" vertex="1" connectable="0">
          <mxGeometry x="-0.2126" relative="1" as="geometry">
            <mxPoint as="offset" />
          </mxGeometry>
        </mxCell>
        <mxCell id="peprseL-71aU9R8MaZxs-17" style="rounded=0;orthogonalLoop=1;jettySize=auto;html=1;exitX=0.5;exitY=1;exitDx=0;exitDy=0;entryX=0.5;entryY=0;entryDx=0;entryDy=0;endArrow=none;endFill=0;labelBackgroundColor=none;strokeColor=#457B9D;fontColor=default;" parent="1" source="peprseL-71aU9R8MaZxs-16" target="6tl0_UV2vyWzfa311lcC-11" edge="1">
          <mxGeometry relative="1" as="geometry" />
        </mxCell>
        <mxCell id="peprseL-71aU9R8MaZxs-16" value="user_id" style="ellipse;whiteSpace=wrap;html=1;align=center;rounded=0;labelBackgroundColor=none;fillColor=#60a917;strokeColor=#2D7600;fontColor=#ffffff;" parent="1" vertex="1">
          <mxGeometry x="591" y="170" width="100" height="40" as="geometry" />
        </mxCell>
        <mxCell id="peprseL-71aU9R8MaZxs-32" style="rounded=0;orthogonalLoop=1;jettySize=auto;html=1;exitX=1;exitY=0.5;exitDx=0;exitDy=0;entryX=0;entryY=0.5;entryDx=0;entryDy=0;endArrow=none;endFill=0;labelBackgroundColor=none;strokeColor=#457B9D;fontColor=default;" parent="1" source="peprseL-71aU9R8MaZxs-20" target="peprseL-71aU9R8MaZxs-11" edge="1">
          <mxGeometry relative="1" as="geometry" />
        </mxCell>
        <mxCell id="peprseL-71aU9R8MaZxs-20" value="strength&lt;span style=&quot;white-space: pre;&quot;&gt;&#x9;&lt;/span&gt;" style="ellipse;whiteSpace=wrap;html=1;align=center;rounded=0;labelBackgroundColor=none;fillColor=#60a917;strokeColor=#2D7600;fontColor=#ffffff;" parent="1" vertex="1">
          <mxGeometry x="384" y="650" width="100" height="40" as="geometry" />
        </mxCell>
        <mxCell id="peprseL-71aU9R8MaZxs-31" style="rounded=0;orthogonalLoop=1;jettySize=auto;html=1;exitX=1;exitY=0.5;exitDx=0;exitDy=0;entryX=0.25;entryY=1;entryDx=0;entryDy=0;endArrow=none;endFill=0;labelBackgroundColor=none;strokeColor=#457B9D;fontColor=default;" parent="1" source="peprseL-71aU9R8MaZxs-21" target="peprseL-71aU9R8MaZxs-11" edge="1">
          <mxGeometry relative="1" as="geometry" />
        </mxCell>
        <mxCell id="peprseL-71aU9R8MaZxs-21" value="dexterity" style="ellipse;whiteSpace=wrap;html=1;align=center;rounded=0;labelBackgroundColor=none;fillColor=#60a917;strokeColor=#2D7600;fontColor=#ffffff;" parent="1" vertex="1">
          <mxGeometry x="384" y="700" width="100" height="40" as="geometry" />
        </mxCell>
        <mxCell id="peprseL-71aU9R8MaZxs-29" style="rounded=0;orthogonalLoop=1;jettySize=auto;html=1;exitX=1;exitY=0.5;exitDx=0;exitDy=0;entryX=0.5;entryY=1;entryDx=0;entryDy=0;endArrow=none;endFill=0;labelBackgroundColor=none;strokeColor=#457B9D;fontColor=default;" parent="1" source="peprseL-71aU9R8MaZxs-22" target="peprseL-71aU9R8MaZxs-11" edge="1">
          <mxGeometry relative="1" as="geometry" />
        </mxCell>
        <mxCell id="peprseL-71aU9R8MaZxs-22" value="endurance" style="ellipse;whiteSpace=wrap;html=1;align=center;rounded=0;labelBackgroundColor=none;fillColor=#60a917;strokeColor=#2D7600;fontColor=#ffffff;" parent="1" vertex="1">
          <mxGeometry x="384" y="750" width="100" height="40" as="geometry" />
        </mxCell>
        <mxCell id="peprseL-71aU9R8MaZxs-33" style="rounded=0;orthogonalLoop=1;jettySize=auto;html=1;exitX=0;exitY=0.5;exitDx=0;exitDy=0;entryX=1;entryY=0.5;entryDx=0;entryDy=0;endArrow=none;endFill=0;labelBackgroundColor=none;strokeColor=#457B9D;fontColor=default;" parent="1" source="peprseL-71aU9R8MaZxs-23" target="peprseL-71aU9R8MaZxs-11" edge="1">
          <mxGeometry relative="1" as="geometry" />
        </mxCell>
        <mxCell id="peprseL-71aU9R8MaZxs-23" value="intelligence" style="ellipse;whiteSpace=wrap;html=1;align=center;rounded=0;labelBackgroundColor=none;fillColor=#60a917;strokeColor=#2D7600;fontColor=#ffffff;" parent="1" vertex="1">
          <mxGeometry x="610" y="650" width="100" height="40" as="geometry" />
        </mxCell>
        <mxCell id="peprseL-71aU9R8MaZxs-30" style="rounded=0;orthogonalLoop=1;jettySize=auto;html=1;exitX=0;exitY=0.5;exitDx=0;exitDy=0;entryX=0.75;entryY=1;entryDx=0;entryDy=0;endArrow=none;endFill=0;labelBackgroundColor=none;strokeColor=#457B9D;fontColor=default;" parent="1" source="peprseL-71aU9R8MaZxs-24" target="peprseL-71aU9R8MaZxs-11" edge="1">
          <mxGeometry relative="1" as="geometry" />
        </mxCell>
        <mxCell id="peprseL-71aU9R8MaZxs-24" value="charisma" style="ellipse;whiteSpace=wrap;html=1;align=center;rounded=0;labelBackgroundColor=none;fillColor=#60a917;strokeColor=#2D7600;fontColor=#ffffff;" parent="1" vertex="1">
          <mxGeometry x="610" y="700" width="100" height="40" as="geometry" />
        </mxCell>
        <mxCell id="peprseL-71aU9R8MaZxs-28" style="rounded=0;orthogonalLoop=1;jettySize=auto;html=1;exitX=0;exitY=0.5;exitDx=0;exitDy=0;entryX=0.5;entryY=1;entryDx=0;entryDy=0;endArrow=none;endFill=0;labelBackgroundColor=none;strokeColor=#457B9D;fontColor=default;" parent="1" source="peprseL-71aU9R8MaZxs-25" target="peprseL-71aU9R8MaZxs-11" edge="1">
          <mxGeometry relative="1" as="geometry" />
        </mxCell>
        <mxCell id="peprseL-71aU9R8MaZxs-25" value="wilpower" style="ellipse;whiteSpace=wrap;html=1;align=center;rounded=0;labelBackgroundColor=none;fillColor=#60a917;strokeColor=#2D7600;fontColor=#ffffff;" parent="1" vertex="1">
          <mxGeometry x="610" y="750" width="100" height="40" as="geometry" />
        </mxCell>
        <mxCell id="peprseL-71aU9R8MaZxs-34" value="+modifier" style="text;html=1;align=center;verticalAlign=middle;resizable=0;points=[];autosize=1;strokeColor=none;fillColor=none;rounded=0;labelBackgroundColor=none;fontColor=#ffffff;" parent="1" vertex="1">
          <mxGeometry x="509" y="850" width="70" height="30" as="geometry" />
        </mxCell>
        <mxCell id="peprseL-71aU9R8MaZxs-52" value="Equipment" style="whiteSpace=wrap;html=1;align=center;rounded=0;labelBackgroundColor=none;fillColor=#d80073;strokeColor=#A50040;fontColor=#ffffff;" parent="1" vertex="1">
          <mxGeometry x="895" y="610" width="100" height="40" as="geometry" />
        </mxCell>
        <mxCell id="peprseL-71aU9R8MaZxs-69" style="rounded=0;orthogonalLoop=1;jettySize=auto;html=1;exitX=1;exitY=0.5;exitDx=0;exitDy=0;entryX=0;entryY=0.5;entryDx=0;entryDy=0;endArrow=none;endFill=0;labelBackgroundColor=none;strokeColor=#457B9D;fontColor=default;" parent="1" source="peprseL-71aU9R8MaZxs-54" target="peprseL-71aU9R8MaZxs-52" edge="1">
          <mxGeometry relative="1" as="geometry" />
        </mxCell>
        <mxCell id="peprseL-71aU9R8MaZxs-54" value="left hand" style="ellipse;whiteSpace=wrap;html=1;align=center;rounded=0;labelBackgroundColor=none;fillColor=#60a917;strokeColor=#2D7600;fontColor=#ffffff;" parent="1" vertex="1">
          <mxGeometry x="761" y="560" width="100" height="40" as="geometry" />
        </mxCell>
        <mxCell id="peprseL-71aU9R8MaZxs-71" style="rounded=0;orthogonalLoop=1;jettySize=auto;html=1;exitX=1;exitY=0.5;exitDx=0;exitDy=0;entryX=0;entryY=0.5;entryDx=0;entryDy=0;endArrow=none;endFill=0;labelBackgroundColor=none;strokeColor=#457B9D;fontColor=default;" parent="1" source="peprseL-71aU9R8MaZxs-55" target="peprseL-71aU9R8MaZxs-52" edge="1">
          <mxGeometry relative="1" as="geometry" />
        </mxCell>
        <mxCell id="peprseL-71aU9R8MaZxs-55" value="right hand" style="ellipse;whiteSpace=wrap;html=1;align=center;rounded=0;labelBackgroundColor=none;fillColor=#60a917;strokeColor=#2D7600;fontColor=#ffffff;" parent="1" vertex="1">
          <mxGeometry x="761" y="610" width="100" height="40" as="geometry" />
        </mxCell>
        <mxCell id="peprseL-71aU9R8MaZxs-72" style="rounded=0;orthogonalLoop=1;jettySize=auto;html=1;exitX=1;exitY=0.5;exitDx=0;exitDy=0;entryX=0;entryY=0.5;entryDx=0;entryDy=0;endArrow=none;endFill=0;labelBackgroundColor=none;strokeColor=#457B9D;fontColor=default;" parent="1" source="peprseL-71aU9R8MaZxs-56" target="peprseL-71aU9R8MaZxs-52" edge="1">
          <mxGeometry relative="1" as="geometry" />
        </mxCell>
        <mxCell id="peprseL-71aU9R8MaZxs-56" value="armour" style="ellipse;whiteSpace=wrap;html=1;align=center;rounded=0;labelBackgroundColor=none;fillColor=#60a917;strokeColor=#2D7600;fontColor=#ffffff;" parent="1" vertex="1">
          <mxGeometry x="761" y="665" width="100" height="40" as="geometry" />
        </mxCell>
        <mxCell id="peprseL-71aU9R8MaZxs-76" style="rounded=0;orthogonalLoop=1;jettySize=auto;html=1;exitX=0.5;exitY=0;exitDx=0;exitDy=0;entryX=0.5;entryY=1;entryDx=0;entryDy=0;endArrow=classicThin;endFill=1;labelBackgroundColor=none;strokeColor=#457B9D;fontColor=default;" parent="1" source="peprseL-71aU9R8MaZxs-57" target="6tl0_UV2vyWzfa311lcC-11" edge="1">
          <mxGeometry relative="1" as="geometry" />
        </mxCell>
        <mxCell id="peprseL-71aU9R8MaZxs-133" value="1" style="edgeLabel;html=1;align=center;verticalAlign=middle;resizable=0;points=[];strokeColor=#457B9D;fontFamily=Helvetica;fontSize=11;fontColor=default;labelBackgroundColor=none;fillColor=#A8DADC;" parent="peprseL-71aU9R8MaZxs-76" vertex="1" connectable="0">
          <mxGeometry x="0.152" y="-1" relative="1" as="geometry">
            <mxPoint as="offset" />
          </mxGeometry>
        </mxCell>
        <mxCell id="peprseL-71aU9R8MaZxs-77" style="rounded=0;orthogonalLoop=1;jettySize=auto;html=1;exitX=0.5;exitY=1;exitDx=0;exitDy=0;entryX=0.5;entryY=0;entryDx=0;entryDy=0;endArrow=classic;endFill=1;labelBackgroundColor=none;strokeColor=#457B9D;fontColor=default;" parent="1" source="peprseL-71aU9R8MaZxs-57" target="peprseL-71aU9R8MaZxs-52" edge="1">
          <mxGeometry relative="1" as="geometry" />
        </mxCell>
        <mxCell id="peprseL-71aU9R8MaZxs-134" value="1" style="edgeLabel;html=1;align=center;verticalAlign=middle;resizable=0;points=[];strokeColor=#457B9D;fontFamily=Helvetica;fontSize=11;fontColor=default;labelBackgroundColor=none;fillColor=#A8DADC;" parent="peprseL-71aU9R8MaZxs-77" vertex="1" connectable="0">
          <mxGeometry x="0.2148" y="1" relative="1" as="geometry">
            <mxPoint as="offset" />
          </mxGeometry>
        </mxCell>
        <mxCell id="peprseL-71aU9R8MaZxs-57" value="has" style="shape=rhombus;perimeter=rhombusPerimeter;whiteSpace=wrap;html=1;align=center;rounded=0;labelBackgroundColor=none;fillColor=#0050ef;strokeColor=#001DBC;fontColor=#ffffff;" parent="1" vertex="1">
          <mxGeometry x="810" y="450" width="120" height="60" as="geometry" />
        </mxCell>
        <mxCell id="peprseL-71aU9R8MaZxs-58" value="has" style="shape=rhombus;perimeter=rhombusPerimeter;whiteSpace=wrap;html=1;align=center;rounded=0;labelBackgroundColor=none;fillColor=#0050ef;strokeColor=#001DBC;fontColor=#ffffff;" parent="1" vertex="1">
          <mxGeometry x="414" y="295" width="120" height="60" as="geometry" />
        </mxCell>
        <mxCell id="peprseL-71aU9R8MaZxs-59" value="has" style="shape=rhombus;perimeter=rhombusPerimeter;whiteSpace=wrap;html=1;align=center;rounded=0;labelBackgroundColor=none;fillColor=#0050ef;strokeColor=#001DBC;fontColor=#ffffff;" parent="1" vertex="1">
          <mxGeometry x="504" y="450" width="120" height="60" as="geometry" />
        </mxCell>
        <mxCell id="peprseL-71aU9R8MaZxs-61" value="id" style="ellipse;whiteSpace=wrap;html=1;align=center;fontStyle=4;rounded=0;labelBackgroundColor=none;fillColor=#6a00ff;strokeColor=#3700CC;fontColor=#ffffff;" parent="1" vertex="1">
          <mxGeometry x="579" y="590" width="100" height="40" as="geometry" />
        </mxCell>
        <mxCell id="peprseL-71aU9R8MaZxs-63" value="character_id" style="ellipse;whiteSpace=wrap;html=1;align=center;rounded=0;labelBackgroundColor=none;fillColor=#6a00ff;strokeColor=#3700CC;fontColor=#ffffff;fontStyle=4" parent="1" vertex="1">
          <mxGeometry x="424" y="590" width="100" height="40" as="geometry" />
        </mxCell>
        <mxCell id="peprseL-71aU9R8MaZxs-74" style="rounded=0;orthogonalLoop=1;jettySize=auto;html=1;exitX=0.5;exitY=0;exitDx=0;exitDy=0;entryX=0.5;entryY=1;entryDx=0;entryDy=0;endArrow=none;endFill=0;labelBackgroundColor=none;strokeColor=#457B9D;fontColor=default;" parent="1" source="peprseL-71aU9R8MaZxs-66" target="peprseL-71aU9R8MaZxs-52" edge="1">
          <mxGeometry relative="1" as="geometry">
            <mxPoint x="1035" y="700" as="targetPoint" />
          </mxGeometry>
        </mxCell>
        <mxCell id="peprseL-71aU9R8MaZxs-66" value="id" style="ellipse;whiteSpace=wrap;html=1;align=center;fontStyle=4;rounded=0;labelBackgroundColor=none;fillColor=#6a00ff;strokeColor=#3700CC;fontColor=#ffffff;" parent="1" vertex="1">
          <mxGeometry x="972.5" y="710" width="100" height="40" as="geometry" />
        </mxCell>
        <mxCell id="peprseL-71aU9R8MaZxs-73" style="rounded=0;orthogonalLoop=1;jettySize=auto;html=1;exitX=0.5;exitY=0;exitDx=0;exitDy=0;entryX=0.5;entryY=1;entryDx=0;entryDy=0;endArrow=none;endFill=0;labelBackgroundColor=none;strokeColor=#457B9D;fontColor=default;" parent="1" source="peprseL-71aU9R8MaZxs-67" target="peprseL-71aU9R8MaZxs-52" edge="1">
          <mxGeometry relative="1" as="geometry" />
        </mxCell>
        <mxCell id="peprseL-71aU9R8MaZxs-67" value="character_id" style="ellipse;whiteSpace=wrap;html=1;align=center;rounded=0;labelBackgroundColor=none;fillColor=#6a00ff;strokeColor=#3700CC;fontColor=#ffffff;fontStyle=4" parent="1" vertex="1">
          <mxGeometry x="820" y="710" width="100" height="40" as="geometry" />
        </mxCell>
        <mxCell id="peprseL-71aU9R8MaZxs-113" style="edgeStyle=none;rounded=0;orthogonalLoop=1;jettySize=auto;html=1;exitX=0.5;exitY=1;exitDx=0;exitDy=0;entryX=0.5;entryY=0;entryDx=0;entryDy=0;strokeColor=#457B9D;endArrow=none;endFill=0;labelBackgroundColor=none;fontColor=default;" parent="1" source="peprseL-71aU9R8MaZxs-87" target="6tl0_UV2vyWzfa311lcC-11" edge="1">
          <mxGeometry relative="1" as="geometry" />
        </mxCell>
        <mxCell id="peprseL-71aU9R8MaZxs-87" value="data" style="ellipse;whiteSpace=wrap;html=1;align=center;rounded=0;labelBackgroundColor=none;fillColor=#008a00;strokeColor=#005700;fontColor=#ffffff;" parent="1" vertex="1">
          <mxGeometry x="725" y="180" width="100" height="40" as="geometry" />
        </mxCell>
        <mxCell id="GAKkH_xGqtzqrPNIRhfc-87" style="edgeStyle=none;shape=connector;rounded=0;orthogonalLoop=1;jettySize=auto;html=1;exitX=1;exitY=0.5;exitDx=0;exitDy=0;entryX=0;entryY=0.5;entryDx=0;entryDy=0;strokeColor=#457B9D;align=center;verticalAlign=middle;fontFamily=Helvetica;fontSize=11;fontColor=default;labelBackgroundColor=none;endArrow=none;endFill=0;" edge="1" parent="1" source="peprseL-71aU9R8MaZxs-115" target="GAKkH_xGqtzqrPNIRhfc-101">
          <mxGeometry relative="1" as="geometry">
            <mxPoint x="1181" y="310" as="targetPoint" />
          </mxGeometry>
        </mxCell>
        <mxCell id="peprseL-71aU9R8MaZxs-115" value="CharacterSkills" style="whiteSpace=wrap;html=1;align=center;rounded=0;labelBackgroundColor=none;fillColor=#d80073;strokeColor=#A50040;fontColor=#ffffff;" parent="1" vertex="1">
          <mxGeometry x="1055" y="290" width="100" height="40" as="geometry" />
        </mxCell>
        <mxCell id="peprseL-71aU9R8MaZxs-118" value="" style="edgeStyle=none;rounded=0;orthogonalLoop=1;jettySize=auto;html=1;exitX=1;exitY=0.5;exitDx=0;exitDy=0;entryX=0;entryY=0.5;entryDx=0;entryDy=0;strokeColor=#457B9D;align=center;verticalAlign=middle;fontFamily=Helvetica;fontSize=11;fontColor=default;labelBackgroundColor=none;endArrow=none;endFill=0;startArrow=classic;startFill=1;" parent="1" source="6tl0_UV2vyWzfa311lcC-11" target="peprseL-71aU9R8MaZxs-116" edge="1">
          <mxGeometry relative="1" as="geometry">
            <mxPoint x="690" y="310" as="sourcePoint" />
            <mxPoint x="890" y="310" as="targetPoint" />
          </mxGeometry>
        </mxCell>
        <mxCell id="peprseL-71aU9R8MaZxs-136" value="1" style="edgeLabel;html=1;align=center;verticalAlign=middle;resizable=0;points=[];strokeColor=#457B9D;fontFamily=Helvetica;fontSize=11;fontColor=default;labelBackgroundColor=none;fillColor=#A8DADC;" parent="peprseL-71aU9R8MaZxs-118" vertex="1" connectable="0">
          <mxGeometry x="0.1954" relative="1" as="geometry">
            <mxPoint as="offset" />
          </mxGeometry>
        </mxCell>
        <mxCell id="peprseL-71aU9R8MaZxs-116" value="has" style="shape=rhombus;perimeter=rhombusPerimeter;whiteSpace=wrap;html=1;align=center;rounded=0;labelBackgroundColor=none;fillColor=#0050ef;strokeColor=#001DBC;fontColor=#ffffff;" parent="1" vertex="1">
          <mxGeometry x="855" y="285" width="120" height="60" as="geometry" />
        </mxCell>
        <mxCell id="peprseL-71aU9R8MaZxs-125" style="edgeStyle=none;shape=connector;rounded=0;orthogonalLoop=1;jettySize=auto;html=1;exitX=0.5;exitY=1;exitDx=0;exitDy=0;entryX=0.5;entryY=0;entryDx=0;entryDy=0;strokeColor=#457B9D;align=center;verticalAlign=middle;fontFamily=Helvetica;fontSize=11;fontColor=default;labelBackgroundColor=none;endArrow=none;endFill=0;" parent="1" source="peprseL-71aU9R8MaZxs-123" target="peprseL-71aU9R8MaZxs-115" edge="1">
          <mxGeometry relative="1" as="geometry" />
        </mxCell>
        <mxCell id="peprseL-71aU9R8MaZxs-123" value="id" style="ellipse;whiteSpace=wrap;html=1;align=center;fontStyle=4;rounded=0;labelBackgroundColor=none;fillColor=#6a00ff;strokeColor=#3700CC;fontColor=#ffffff;" parent="1" vertex="1">
          <mxGeometry x="1135" y="200" width="100" height="40" as="geometry" />
        </mxCell>
        <mxCell id="peprseL-71aU9R8MaZxs-126" style="edgeStyle=none;shape=connector;rounded=0;orthogonalLoop=1;jettySize=auto;html=1;exitX=0.5;exitY=1;exitDx=0;exitDy=0;entryX=0.5;entryY=0;entryDx=0;entryDy=0;strokeColor=#457B9D;align=center;verticalAlign=middle;fontFamily=Helvetica;fontSize=11;fontColor=default;labelBackgroundColor=none;endArrow=none;endFill=0;" parent="1" source="peprseL-71aU9R8MaZxs-124" target="peprseL-71aU9R8MaZxs-115" edge="1">
          <mxGeometry relative="1" as="geometry" />
        </mxCell>
        <mxCell id="peprseL-71aU9R8MaZxs-124" value="character_id" style="ellipse;whiteSpace=wrap;html=1;align=center;rounded=0;labelBackgroundColor=none;fillColor=#6a00ff;strokeColor=#3700CC;fontColor=#ffffff;fontStyle=4" parent="1" vertex="1">
          <mxGeometry x="980" y="200" width="100" height="40" as="geometry" />
        </mxCell>
        <mxCell id="GAKkH_xGqtzqrPNIRhfc-1" value="status" style="ellipse;whiteSpace=wrap;html=1;align=center;rounded=0;labelBackgroundColor=none;fillColor=#60a917;strokeColor=#2D7600;fontColor=#ffffff;" vertex="1" parent="1">
          <mxGeometry x="55" y="420" width="100" height="40" as="geometry" />
        </mxCell>
        <mxCell id="GAKkH_xGqtzqrPNIRhfc-2" value="user / admin" style="text;html=1;align=center;verticalAlign=middle;resizable=0;points=[];autosize=1;strokeColor=none;fillColor=none;" vertex="1" parent="1">
          <mxGeometry x="55" y="458" width="90" height="30" as="geometry" />
        </mxCell>
        <mxCell id="GAKkH_xGqtzqrPNIRhfc-7" value="Inventory" style="whiteSpace=wrap;html=1;align=center;rounded=0;labelBackgroundColor=none;fillColor=#d80073;strokeColor=#A50040;fontColor=#ffffff;" vertex="1" parent="1">
          <mxGeometry x="1060" y="460" width="100" height="40" as="geometry" />
        </mxCell>
        <mxCell id="GAKkH_xGqtzqrPNIRhfc-11" style="edgeStyle=none;shape=connector;rounded=0;orthogonalLoop=1;jettySize=auto;html=1;exitX=0.5;exitY=0;exitDx=0;exitDy=0;entryX=0.5;entryY=1;entryDx=0;entryDy=0;strokeColor=#457B9D;align=center;verticalAlign=middle;fontFamily=Helvetica;fontSize=11;fontColor=default;labelBackgroundColor=none;endArrow=none;endFill=0;" edge="1" parent="1" source="GAKkH_xGqtzqrPNIRhfc-8" target="GAKkH_xGqtzqrPNIRhfc-7">
          <mxGeometry relative="1" as="geometry" />
        </mxCell>
        <mxCell id="GAKkH_xGqtzqrPNIRhfc-8" value="id" style="ellipse;whiteSpace=wrap;html=1;align=center;fontStyle=4;rounded=0;labelBackgroundColor=none;fillColor=#6a00ff;strokeColor=#3700CC;fontColor=#ffffff;" vertex="1" parent="1">
          <mxGeometry x="1136.25" y="530" width="100" height="40" as="geometry" />
        </mxCell>
        <mxCell id="GAKkH_xGqtzqrPNIRhfc-12" style="edgeStyle=none;shape=connector;rounded=0;orthogonalLoop=1;jettySize=auto;html=1;exitX=0.5;exitY=0;exitDx=0;exitDy=0;entryX=0.5;entryY=1;entryDx=0;entryDy=0;strokeColor=#457B9D;align=center;verticalAlign=middle;fontFamily=Helvetica;fontSize=11;fontColor=default;labelBackgroundColor=none;endArrow=none;endFill=0;" edge="1" parent="1" source="GAKkH_xGqtzqrPNIRhfc-9" target="GAKkH_xGqtzqrPNIRhfc-7">
          <mxGeometry relative="1" as="geometry" />
        </mxCell>
        <mxCell id="GAKkH_xGqtzqrPNIRhfc-9" value="character_id" style="ellipse;whiteSpace=wrap;html=1;align=center;rounded=0;labelBackgroundColor=none;fillColor=#6a00ff;strokeColor=#3700CC;fontColor=#ffffff;fontStyle=4" vertex="1" parent="1">
          <mxGeometry x="983.75" y="530" width="100" height="40" as="geometry" />
        </mxCell>
        <mxCell id="GAKkH_xGqtzqrPNIRhfc-13" style="edgeStyle=none;shape=connector;rounded=0;orthogonalLoop=1;jettySize=auto;html=1;exitX=0;exitY=0.5;exitDx=0;exitDy=0;entryX=1;entryY=0.5;entryDx=0;entryDy=0;strokeColor=#457B9D;align=center;verticalAlign=middle;fontFamily=Helvetica;fontSize=11;fontColor=default;labelBackgroundColor=none;endArrow=none;endFill=0;" edge="1" parent="1" source="GAKkH_xGqtzqrPNIRhfc-21" target="GAKkH_xGqtzqrPNIRhfc-7">
          <mxGeometry relative="1" as="geometry">
            <mxPoint x="1191" y="480" as="sourcePoint" />
          </mxGeometry>
        </mxCell>
        <mxCell id="GAKkH_xGqtzqrPNIRhfc-18" value="" style="edgeStyle=none;shape=connector;rounded=0;orthogonalLoop=1;jettySize=auto;html=1;exitX=1;exitY=1;exitDx=0;exitDy=0;entryX=0;entryY=0.5;entryDx=0;entryDy=0;strokeColor=#457B9D;align=center;verticalAlign=middle;fontFamily=Helvetica;fontSize=11;fontColor=default;labelBackgroundColor=none;endArrow=none;endFill=0;startArrow=classic;startFill=1;" edge="1" parent="1" source="6tl0_UV2vyWzfa311lcC-11" target="GAKkH_xGqtzqrPNIRhfc-15">
          <mxGeometry relative="1" as="geometry">
            <mxPoint x="750" y="370" as="sourcePoint" />
            <mxPoint x="1060" y="460" as="targetPoint" />
          </mxGeometry>
        </mxCell>
        <mxCell id="GAKkH_xGqtzqrPNIRhfc-19" value="1" style="edgeLabel;html=1;align=center;verticalAlign=middle;resizable=0;points=[];fontFamily=Helvetica;fontSize=11;fontColor=default;labelBackgroundColor=none;" vertex="1" connectable="0" parent="GAKkH_xGqtzqrPNIRhfc-18">
          <mxGeometry x="-0.7269" y="2" relative="1" as="geometry">
            <mxPoint as="offset" />
          </mxGeometry>
        </mxCell>
        <mxCell id="GAKkH_xGqtzqrPNIRhfc-15" value="has" style="shape=rhombus;perimeter=rhombusPerimeter;whiteSpace=wrap;html=1;align=center;rounded=0;labelBackgroundColor=none;fillColor=#0050ef;strokeColor=#001DBC;fontColor=#ffffff;" vertex="1" parent="1">
          <mxGeometry x="852.5" y="380" width="120" height="60" as="geometry" />
        </mxCell>
        <mxCell id="GAKkH_xGqtzqrPNIRhfc-26" style="edgeStyle=none;shape=connector;rounded=0;orthogonalLoop=1;jettySize=auto;html=1;exitX=1;exitY=0.5;exitDx=0;exitDy=0;entryX=0;entryY=0.5;entryDx=0;entryDy=0;strokeColor=#457B9D;align=center;verticalAlign=middle;fontFamily=Helvetica;fontSize=11;fontColor=default;labelBackgroundColor=none;endArrow=none;endFill=0;" edge="1" parent="1" source="GAKkH_xGqtzqrPNIRhfc-21" target="GAKkH_xGqtzqrPNIRhfc-22">
          <mxGeometry relative="1" as="geometry" />
        </mxCell>
        <mxCell id="GAKkH_xGqtzqrPNIRhfc-27" style="edgeStyle=none;shape=connector;rounded=0;orthogonalLoop=1;jettySize=auto;html=1;exitX=1;exitY=0.5;exitDx=0;exitDy=0;entryX=0;entryY=0.5;entryDx=0;entryDy=0;strokeColor=#457B9D;align=center;verticalAlign=middle;fontFamily=Helvetica;fontSize=11;fontColor=default;labelBackgroundColor=none;endArrow=none;endFill=0;" edge="1" parent="1" source="GAKkH_xGqtzqrPNIRhfc-21" target="GAKkH_xGqtzqrPNIRhfc-25">
          <mxGeometry relative="1" as="geometry" />
        </mxCell>
        <mxCell id="GAKkH_xGqtzqrPNIRhfc-21" value="items" style="ellipse;whiteSpace=wrap;html=1;align=center;rounded=0;labelBackgroundColor=none;fillColor=#008a00;strokeColor=#005700;fontColor=#ffffff;" vertex="1" parent="1">
          <mxGeometry x="1200" y="460" width="100" height="40" as="geometry" />
        </mxCell>
        <mxCell id="GAKkH_xGqtzqrPNIRhfc-22" value="item 1" style="ellipse;whiteSpace=wrap;html=1;align=center;rounded=0;labelBackgroundColor=none;fillColor=#60a917;strokeColor=#2D7600;fontColor=#ffffff;" vertex="1" parent="1">
          <mxGeometry x="1320" y="410" width="100" height="40" as="geometry" />
        </mxCell>
        <mxCell id="GAKkH_xGqtzqrPNIRhfc-25" value="item 10" style="ellipse;whiteSpace=wrap;html=1;align=center;rounded=0;labelBackgroundColor=none;fillColor=#60a917;strokeColor=#2D7600;fontColor=#ffffff;" vertex="1" parent="1">
          <mxGeometry x="1320" y="500" width="100" height="40" as="geometry" />
        </mxCell>
        <mxCell id="GAKkH_xGqtzqrPNIRhfc-100" style="edgeStyle=none;shape=connector;rounded=0;orthogonalLoop=1;jettySize=auto;html=1;exitX=1;exitY=0.5;exitDx=0;exitDy=0;entryX=0;entryY=0.5;entryDx=0;entryDy=0;strokeColor=#457B9D;align=center;verticalAlign=middle;fontFamily=Helvetica;fontSize=11;fontColor=default;labelBackgroundColor=none;endArrow=none;endFill=0;" edge="1" parent="1" source="GAKkH_xGqtzqrPNIRhfc-28" target="GAKkH_xGqtzqrPNIRhfc-99">
          <mxGeometry relative="1" as="geometry" />
        </mxCell>
        <mxCell id="GAKkH_xGqtzqrPNIRhfc-28" value="Weapons" style="whiteSpace=wrap;html=1;align=center;rounded=0;labelBackgroundColor=none;fillColor=#d80073;strokeColor=#A50040;fontColor=#ffffff;" vertex="1" parent="1">
          <mxGeometry x="2209" y="170" width="100" height="40" as="geometry" />
        </mxCell>
        <mxCell id="GAKkH_xGqtzqrPNIRhfc-29" value="Nations" style="whiteSpace=wrap;html=1;align=center;rounded=0;labelBackgroundColor=none;fillColor=#d80073;strokeColor=#A50040;fontColor=#ffffff;" vertex="1" parent="1">
          <mxGeometry x="1560" width="100" height="40" as="geometry" />
        </mxCell>
        <mxCell id="GAKkH_xGqtzqrPNIRhfc-43" style="edgeStyle=none;shape=connector;rounded=0;orthogonalLoop=1;jettySize=auto;html=1;exitX=0.5;exitY=1;exitDx=0;exitDy=0;entryX=0.5;entryY=0;entryDx=0;entryDy=0;strokeColor=#457B9D;align=center;verticalAlign=middle;fontFamily=Helvetica;fontSize=11;fontColor=default;labelBackgroundColor=none;endArrow=none;endFill=0;" edge="1" parent="1" source="GAKkH_xGqtzqrPNIRhfc-30" target="GAKkH_xGqtzqrPNIRhfc-41">
          <mxGeometry relative="1" as="geometry" />
        </mxCell>
        <mxCell id="GAKkH_xGqtzqrPNIRhfc-30" value="Paths" style="whiteSpace=wrap;html=1;align=center;rounded=0;labelBackgroundColor=none;fillColor=#d80073;strokeColor=#A50040;fontColor=#ffffff;" vertex="1" parent="1">
          <mxGeometry x="1829" y="170" width="100" height="40" as="geometry" />
        </mxCell>
        <mxCell id="GAKkH_xGqtzqrPNIRhfc-36" style="edgeStyle=none;shape=connector;rounded=0;orthogonalLoop=1;jettySize=auto;html=1;exitX=1;exitY=0.5;exitDx=0;exitDy=0;entryX=0;entryY=0.5;entryDx=0;entryDy=0;strokeColor=#457B9D;align=center;verticalAlign=middle;fontFamily=Helvetica;fontSize=11;fontColor=default;labelBackgroundColor=none;endArrow=none;endFill=0;" edge="1" parent="1" source="GAKkH_xGqtzqrPNIRhfc-31" target="GAKkH_xGqtzqrPNIRhfc-28">
          <mxGeometry relative="1" as="geometry" />
        </mxCell>
        <mxCell id="GAKkH_xGqtzqrPNIRhfc-31" value="id" style="ellipse;whiteSpace=wrap;html=1;align=center;fontStyle=4;rounded=0;labelBackgroundColor=none;fillColor=#6a00ff;strokeColor=#3700CC;fontColor=#ffffff;" vertex="1" parent="1">
          <mxGeometry x="2089" y="170" width="100" height="40" as="geometry" />
        </mxCell>
        <mxCell id="GAKkH_xGqtzqrPNIRhfc-35" style="edgeStyle=none;shape=connector;rounded=0;orthogonalLoop=1;jettySize=auto;html=1;exitX=1;exitY=0.5;exitDx=0;exitDy=0;entryX=0;entryY=0.5;entryDx=0;entryDy=0;strokeColor=#457B9D;align=center;verticalAlign=middle;fontFamily=Helvetica;fontSize=11;fontColor=default;labelBackgroundColor=none;endArrow=none;endFill=0;" edge="1" parent="1" source="GAKkH_xGqtzqrPNIRhfc-32" target="GAKkH_xGqtzqrPNIRhfc-29">
          <mxGeometry relative="1" as="geometry" />
        </mxCell>
        <mxCell id="GAKkH_xGqtzqrPNIRhfc-32" value="id" style="ellipse;whiteSpace=wrap;html=1;align=center;fontStyle=4;rounded=0;labelBackgroundColor=none;fillColor=#6a00ff;strokeColor=#3700CC;fontColor=#ffffff;" vertex="1" parent="1">
          <mxGeometry x="1450" width="100" height="40" as="geometry" />
        </mxCell>
        <mxCell id="GAKkH_xGqtzqrPNIRhfc-34" style="edgeStyle=none;shape=connector;rounded=0;orthogonalLoop=1;jettySize=auto;html=1;exitX=1;exitY=0.5;exitDx=0;exitDy=0;entryX=0;entryY=0.5;entryDx=0;entryDy=0;strokeColor=#457B9D;align=center;verticalAlign=middle;fontFamily=Helvetica;fontSize=11;fontColor=default;labelBackgroundColor=none;endArrow=none;endFill=0;" edge="1" parent="1" source="GAKkH_xGqtzqrPNIRhfc-33" target="GAKkH_xGqtzqrPNIRhfc-30">
          <mxGeometry relative="1" as="geometry" />
        </mxCell>
        <mxCell id="GAKkH_xGqtzqrPNIRhfc-33" value="id" style="ellipse;whiteSpace=wrap;html=1;align=center;fontStyle=4;rounded=0;labelBackgroundColor=none;fillColor=#6a00ff;strokeColor=#3700CC;fontColor=#ffffff;" vertex="1" parent="1">
          <mxGeometry x="1709" y="170" width="100" height="40" as="geometry" />
        </mxCell>
        <mxCell id="GAKkH_xGqtzqrPNIRhfc-48" style="edgeStyle=none;shape=connector;rounded=0;orthogonalLoop=1;jettySize=auto;html=1;exitX=0.5;exitY=0;exitDx=0;exitDy=0;entryX=0.5;entryY=1;entryDx=0;entryDy=0;strokeColor=#457B9D;align=center;verticalAlign=middle;fontFamily=Helvetica;fontSize=11;fontColor=default;labelBackgroundColor=none;endArrow=none;endFill=0;" edge="1" parent="1" source="GAKkH_xGqtzqrPNIRhfc-37" target="GAKkH_xGqtzqrPNIRhfc-28">
          <mxGeometry relative="1" as="geometry" />
        </mxCell>
        <mxCell id="GAKkH_xGqtzqrPNIRhfc-37" value="name" style="ellipse;whiteSpace=wrap;html=1;align=center;rounded=0;labelBackgroundColor=none;fillColor=#60a917;strokeColor=#2D7600;fontColor=#ffffff;" vertex="1" parent="1">
          <mxGeometry x="2139" y="240" width="100" height="40" as="geometry" />
        </mxCell>
        <mxCell id="GAKkH_xGqtzqrPNIRhfc-47" style="edgeStyle=none;shape=connector;rounded=0;orthogonalLoop=1;jettySize=auto;html=1;exitX=0.5;exitY=0;exitDx=0;exitDy=0;entryX=0.5;entryY=1;entryDx=0;entryDy=0;strokeColor=#457B9D;align=center;verticalAlign=middle;fontFamily=Helvetica;fontSize=11;fontColor=default;labelBackgroundColor=none;endArrow=none;endFill=0;" edge="1" parent="1" source="GAKkH_xGqtzqrPNIRhfc-38" target="GAKkH_xGqtzqrPNIRhfc-28">
          <mxGeometry relative="1" as="geometry" />
        </mxCell>
        <mxCell id="GAKkH_xGqtzqrPNIRhfc-38" value="description" style="ellipse;whiteSpace=wrap;html=1;align=center;rounded=0;labelBackgroundColor=none;fillColor=#60a917;strokeColor=#2D7600;fontColor=#ffffff;" vertex="1" parent="1">
          <mxGeometry x="2259" y="240" width="100" height="40" as="geometry" />
        </mxCell>
        <mxCell id="GAKkH_xGqtzqrPNIRhfc-46" style="edgeStyle=none;shape=connector;rounded=0;orthogonalLoop=1;jettySize=auto;html=1;exitX=0.5;exitY=0;exitDx=0;exitDy=0;entryX=0.5;entryY=1;entryDx=0;entryDy=0;strokeColor=#457B9D;align=center;verticalAlign=middle;fontFamily=Helvetica;fontSize=11;fontColor=default;labelBackgroundColor=none;endArrow=none;endFill=0;" edge="1" parent="1" source="GAKkH_xGqtzqrPNIRhfc-39" target="GAKkH_xGqtzqrPNIRhfc-29">
          <mxGeometry relative="1" as="geometry" />
        </mxCell>
        <mxCell id="GAKkH_xGqtzqrPNIRhfc-39" value="name" style="ellipse;whiteSpace=wrap;html=1;align=center;rounded=0;labelBackgroundColor=none;fillColor=#60a917;strokeColor=#2D7600;fontColor=#ffffff;" vertex="1" parent="1">
          <mxGeometry x="1490" y="70" width="100" height="40" as="geometry" />
        </mxCell>
        <mxCell id="GAKkH_xGqtzqrPNIRhfc-45" style="edgeStyle=none;shape=connector;rounded=0;orthogonalLoop=1;jettySize=auto;html=1;exitX=0.5;exitY=0;exitDx=0;exitDy=0;entryX=0.5;entryY=1;entryDx=0;entryDy=0;strokeColor=#457B9D;align=center;verticalAlign=middle;fontFamily=Helvetica;fontSize=11;fontColor=default;labelBackgroundColor=none;endArrow=none;endFill=0;" edge="1" parent="1" source="GAKkH_xGqtzqrPNIRhfc-40" target="GAKkH_xGqtzqrPNIRhfc-29">
          <mxGeometry relative="1" as="geometry" />
        </mxCell>
        <mxCell id="GAKkH_xGqtzqrPNIRhfc-40" value="description" style="ellipse;whiteSpace=wrap;html=1;align=center;rounded=0;labelBackgroundColor=none;fillColor=#60a917;strokeColor=#2D7600;fontColor=#ffffff;" vertex="1" parent="1">
          <mxGeometry x="1620" y="70" width="100" height="40" as="geometry" />
        </mxCell>
        <mxCell id="GAKkH_xGqtzqrPNIRhfc-41" value="name" style="ellipse;whiteSpace=wrap;html=1;align=center;rounded=0;labelBackgroundColor=none;fillColor=#60a917;strokeColor=#2D7600;fontColor=#ffffff;" vertex="1" parent="1">
          <mxGeometry x="1769" y="240" width="100" height="40" as="geometry" />
        </mxCell>
        <mxCell id="GAKkH_xGqtzqrPNIRhfc-44" style="edgeStyle=none;shape=connector;rounded=0;orthogonalLoop=1;jettySize=auto;html=1;exitX=0.5;exitY=0;exitDx=0;exitDy=0;strokeColor=#457B9D;align=center;verticalAlign=middle;fontFamily=Helvetica;fontSize=11;fontColor=default;labelBackgroundColor=none;endArrow=none;endFill=0;" edge="1" parent="1" source="GAKkH_xGqtzqrPNIRhfc-42">
          <mxGeometry relative="1" as="geometry">
            <mxPoint x="1879" y="210" as="targetPoint" />
          </mxGeometry>
        </mxCell>
        <mxCell id="GAKkH_xGqtzqrPNIRhfc-42" value="description" style="ellipse;whiteSpace=wrap;html=1;align=center;rounded=0;labelBackgroundColor=none;fillColor=#60a917;strokeColor=#2D7600;fontColor=#ffffff;" vertex="1" parent="1">
          <mxGeometry x="1889" y="240" width="100" height="40" as="geometry" />
        </mxCell>
        <mxCell id="GAKkH_xGqtzqrPNIRhfc-50" style="edgeStyle=none;shape=connector;rounded=0;orthogonalLoop=1;jettySize=auto;html=1;exitX=0.5;exitY=0;exitDx=0;exitDy=0;entryX=0.5;entryY=1;entryDx=0;entryDy=0;strokeColor=#457B9D;align=center;verticalAlign=middle;fontFamily=Helvetica;fontSize=11;fontColor=default;labelBackgroundColor=none;endArrow=none;endFill=0;" edge="1" parent="1" source="GAKkH_xGqtzqrPNIRhfc-49" target="GAKkH_xGqtzqrPNIRhfc-29">
          <mxGeometry relative="1" as="geometry" />
        </mxCell>
        <mxCell id="GAKkH_xGqtzqrPNIRhfc-49" value="picture" style="ellipse;whiteSpace=wrap;html=1;align=center;rounded=0;labelBackgroundColor=none;fillColor=#60a917;strokeColor=#2D7600;fontColor=#ffffff;" vertex="1" parent="1">
          <mxGeometry x="1560" y="120" width="100" height="40" as="geometry" />
        </mxCell>
        <mxCell id="GAKkH_xGqtzqrPNIRhfc-51" value="Items" style="whiteSpace=wrap;html=1;align=center;rounded=0;labelBackgroundColor=none;fillColor=#d80073;strokeColor=#A50040;fontColor=#ffffff;" vertex="1" parent="1">
          <mxGeometry x="2210" width="100" height="40" as="geometry" />
        </mxCell>
        <mxCell id="GAKkH_xGqtzqrPNIRhfc-56" style="edgeStyle=none;shape=connector;rounded=0;orthogonalLoop=1;jettySize=auto;html=1;exitX=0.5;exitY=0;exitDx=0;exitDy=0;entryX=0.5;entryY=1;entryDx=0;entryDy=0;strokeColor=#457B9D;align=center;verticalAlign=middle;fontFamily=Helvetica;fontSize=11;fontColor=default;labelBackgroundColor=none;endArrow=none;endFill=0;" edge="1" parent="1" source="GAKkH_xGqtzqrPNIRhfc-52" target="GAKkH_xGqtzqrPNIRhfc-51">
          <mxGeometry relative="1" as="geometry" />
        </mxCell>
        <mxCell id="GAKkH_xGqtzqrPNIRhfc-52" value="name" style="ellipse;whiteSpace=wrap;html=1;align=center;rounded=0;labelBackgroundColor=none;fillColor=#60a917;strokeColor=#2D7600;fontColor=#ffffff;" vertex="1" parent="1">
          <mxGeometry x="2140" y="70" width="100" height="40" as="geometry" />
        </mxCell>
        <mxCell id="GAKkH_xGqtzqrPNIRhfc-55" style="edgeStyle=none;shape=connector;rounded=0;orthogonalLoop=1;jettySize=auto;html=1;exitX=1;exitY=0.5;exitDx=0;exitDy=0;entryX=0;entryY=0.5;entryDx=0;entryDy=0;strokeColor=#457B9D;align=center;verticalAlign=middle;fontFamily=Helvetica;fontSize=11;fontColor=default;labelBackgroundColor=none;endArrow=none;endFill=0;" edge="1" parent="1" source="GAKkH_xGqtzqrPNIRhfc-53" target="GAKkH_xGqtzqrPNIRhfc-51">
          <mxGeometry relative="1" as="geometry" />
        </mxCell>
        <mxCell id="GAKkH_xGqtzqrPNIRhfc-53" value="id" style="ellipse;whiteSpace=wrap;html=1;align=center;fontStyle=4;rounded=0;labelBackgroundColor=none;fillColor=#6a00ff;strokeColor=#3700CC;fontColor=#ffffff;" vertex="1" parent="1">
          <mxGeometry x="2080" width="100" height="40" as="geometry" />
        </mxCell>
        <mxCell id="GAKkH_xGqtzqrPNIRhfc-57" style="edgeStyle=none;shape=connector;rounded=0;orthogonalLoop=1;jettySize=auto;html=1;exitX=0.5;exitY=0;exitDx=0;exitDy=0;entryX=0.5;entryY=1;entryDx=0;entryDy=0;strokeColor=#457B9D;align=center;verticalAlign=middle;fontFamily=Helvetica;fontSize=11;fontColor=default;labelBackgroundColor=none;endArrow=none;endFill=0;" edge="1" parent="1" source="GAKkH_xGqtzqrPNIRhfc-54" target="GAKkH_xGqtzqrPNIRhfc-51">
          <mxGeometry relative="1" as="geometry" />
        </mxCell>
        <mxCell id="GAKkH_xGqtzqrPNIRhfc-54" value="description" style="ellipse;whiteSpace=wrap;html=1;align=center;rounded=0;labelBackgroundColor=none;fillColor=#60a917;strokeColor=#2D7600;fontColor=#ffffff;" vertex="1" parent="1">
          <mxGeometry x="2270" y="70" width="100" height="40" as="geometry" />
        </mxCell>
        <mxCell id="GAKkH_xGqtzqrPNIRhfc-59" style="edgeStyle=none;shape=connector;rounded=0;orthogonalLoop=1;jettySize=auto;html=1;exitX=0.5;exitY=1;exitDx=0;exitDy=0;entryX=0.5;entryY=0;entryDx=0;entryDy=0;strokeColor=#457B9D;align=center;verticalAlign=middle;fontFamily=Helvetica;fontSize=11;fontColor=default;labelBackgroundColor=none;endArrow=none;endFill=0;" edge="1" source="GAKkH_xGqtzqrPNIRhfc-60" target="GAKkH_xGqtzqrPNIRhfc-62" parent="1">
          <mxGeometry relative="1" as="geometry" />
        </mxCell>
        <mxCell id="GAKkH_xGqtzqrPNIRhfc-60" value="PathGroups" style="whiteSpace=wrap;html=1;align=center;rounded=0;labelBackgroundColor=none;fillColor=#d80073;strokeColor=#A50040;fontColor=#ffffff;" vertex="1" parent="1">
          <mxGeometry x="1839" width="100" height="40" as="geometry" />
        </mxCell>
        <mxCell id="GAKkH_xGqtzqrPNIRhfc-61" style="edgeStyle=none;shape=connector;rounded=0;orthogonalLoop=1;jettySize=auto;html=1;exitX=1;exitY=0.5;exitDx=0;exitDy=0;entryX=0;entryY=0.5;entryDx=0;entryDy=0;strokeColor=#457B9D;align=center;verticalAlign=middle;fontFamily=Helvetica;fontSize=11;fontColor=default;labelBackgroundColor=none;endArrow=none;endFill=0;" edge="1" source="GAKkH_xGqtzqrPNIRhfc-65" target="GAKkH_xGqtzqrPNIRhfc-60" parent="1">
          <mxGeometry relative="1" as="geometry" />
        </mxCell>
        <mxCell id="GAKkH_xGqtzqrPNIRhfc-62" value="name" style="ellipse;whiteSpace=wrap;html=1;align=center;rounded=0;labelBackgroundColor=none;fillColor=#60a917;strokeColor=#2D7600;fontColor=#ffffff;" vertex="1" parent="1">
          <mxGeometry x="1779" y="70" width="100" height="40" as="geometry" />
        </mxCell>
        <mxCell id="GAKkH_xGqtzqrPNIRhfc-63" style="edgeStyle=none;shape=connector;rounded=0;orthogonalLoop=1;jettySize=auto;html=1;exitX=0.5;exitY=0;exitDx=0;exitDy=0;strokeColor=#457B9D;align=center;verticalAlign=middle;fontFamily=Helvetica;fontSize=11;fontColor=default;labelBackgroundColor=none;endArrow=none;endFill=0;" edge="1" source="GAKkH_xGqtzqrPNIRhfc-64" parent="1">
          <mxGeometry relative="1" as="geometry">
            <mxPoint x="1889" y="40" as="targetPoint" />
          </mxGeometry>
        </mxCell>
        <mxCell id="GAKkH_xGqtzqrPNIRhfc-64" value="description" style="ellipse;whiteSpace=wrap;html=1;align=center;rounded=0;labelBackgroundColor=none;fillColor=#60a917;strokeColor=#2D7600;fontColor=#ffffff;" vertex="1" parent="1">
          <mxGeometry x="1899" y="70" width="100" height="40" as="geometry" />
        </mxCell>
        <mxCell id="GAKkH_xGqtzqrPNIRhfc-65" value="id" style="ellipse;whiteSpace=wrap;html=1;align=center;fontStyle=4;rounded=0;labelBackgroundColor=none;fillColor=#6a00ff;strokeColor=#3700CC;fontColor=#ffffff;" vertex="1" parent="1">
          <mxGeometry x="1719" width="100" height="40" as="geometry" />
        </mxCell>
        <mxCell id="GAKkH_xGqtzqrPNIRhfc-67" style="edgeStyle=none;shape=connector;rounded=0;orthogonalLoop=1;jettySize=auto;html=1;exitX=0;exitY=0.5;exitDx=0;exitDy=0;entryX=1;entryY=0.5;entryDx=0;entryDy=0;strokeColor=#457B9D;align=center;verticalAlign=middle;fontFamily=Helvetica;fontSize=11;fontColor=default;labelBackgroundColor=none;endArrow=none;endFill=0;" edge="1" parent="1" source="GAKkH_xGqtzqrPNIRhfc-66" target="GAKkH_xGqtzqrPNIRhfc-30">
          <mxGeometry relative="1" as="geometry" />
        </mxCell>
        <mxCell id="GAKkH_xGqtzqrPNIRhfc-66" value="group_id" style="ellipse;whiteSpace=wrap;html=1;align=center;rounded=0;labelBackgroundColor=none;fillColor=#60a917;strokeColor=#2D7600;fontColor=#ffffff;" vertex="1" parent="1">
          <mxGeometry x="1969" y="170" width="100" height="40" as="geometry" />
        </mxCell>
        <mxCell id="GAKkH_xGqtzqrPNIRhfc-75" style="edgeStyle=none;shape=connector;rounded=0;orthogonalLoop=1;jettySize=auto;html=1;exitX=0;exitY=0.5;exitDx=0;exitDy=0;entryX=1;entryY=0.5;entryDx=0;entryDy=0;strokeColor=#457B9D;align=center;verticalAlign=middle;fontFamily=Helvetica;fontSize=11;fontColor=default;labelBackgroundColor=none;endArrow=none;endFill=0;" edge="1" parent="1" source="GAKkH_xGqtzqrPNIRhfc-69" target="GAKkH_xGqtzqrPNIRhfc-72">
          <mxGeometry relative="1" as="geometry" />
        </mxCell>
        <mxCell id="GAKkH_xGqtzqrPNIRhfc-69" value="Armour" style="whiteSpace=wrap;html=1;align=center;rounded=0;labelBackgroundColor=none;fillColor=#d80073;strokeColor=#A50040;fontColor=#ffffff;" vertex="1" parent="1">
          <mxGeometry x="2204" y="355" width="100" height="40" as="geometry" />
        </mxCell>
        <mxCell id="GAKkH_xGqtzqrPNIRhfc-76" style="edgeStyle=none;shape=connector;rounded=0;orthogonalLoop=1;jettySize=auto;html=1;exitX=0.5;exitY=0;exitDx=0;exitDy=0;entryX=0.5;entryY=1;entryDx=0;entryDy=0;strokeColor=#457B9D;align=center;verticalAlign=middle;fontFamily=Helvetica;fontSize=11;fontColor=default;labelBackgroundColor=none;endArrow=none;endFill=0;" edge="1" parent="1" source="GAKkH_xGqtzqrPNIRhfc-70" target="GAKkH_xGqtzqrPNIRhfc-69">
          <mxGeometry relative="1" as="geometry" />
        </mxCell>
        <mxCell id="GAKkH_xGqtzqrPNIRhfc-70" value="name" style="ellipse;whiteSpace=wrap;html=1;align=center;rounded=0;labelBackgroundColor=none;fillColor=#60a917;strokeColor=#2D7600;fontColor=#ffffff;" vertex="1" parent="1">
          <mxGeometry x="2134" y="425" width="100" height="40" as="geometry" />
        </mxCell>
        <mxCell id="GAKkH_xGqtzqrPNIRhfc-77" style="edgeStyle=none;shape=connector;rounded=0;orthogonalLoop=1;jettySize=auto;html=1;exitX=0.5;exitY=0;exitDx=0;exitDy=0;entryX=0.5;entryY=1;entryDx=0;entryDy=0;strokeColor=#457B9D;align=center;verticalAlign=middle;fontFamily=Helvetica;fontSize=11;fontColor=default;labelBackgroundColor=none;endArrow=none;endFill=0;" edge="1" parent="1" source="GAKkH_xGqtzqrPNIRhfc-71" target="GAKkH_xGqtzqrPNIRhfc-69">
          <mxGeometry relative="1" as="geometry" />
        </mxCell>
        <mxCell id="GAKkH_xGqtzqrPNIRhfc-71" value="description" style="ellipse;whiteSpace=wrap;html=1;align=center;rounded=0;labelBackgroundColor=none;fillColor=#60a917;strokeColor=#2D7600;fontColor=#ffffff;" vertex="1" parent="1">
          <mxGeometry x="2254" y="425" width="100" height="40" as="geometry" />
        </mxCell>
        <mxCell id="GAKkH_xGqtzqrPNIRhfc-72" value="id" style="ellipse;whiteSpace=wrap;html=1;align=center;fontStyle=4;rounded=0;labelBackgroundColor=none;fillColor=#6a00ff;strokeColor=#3700CC;fontColor=#ffffff;" vertex="1" parent="1">
          <mxGeometry x="2084" y="355" width="100" height="40" as="geometry" />
        </mxCell>
        <mxCell id="GAKkH_xGqtzqrPNIRhfc-74" style="edgeStyle=none;shape=connector;rounded=0;orthogonalLoop=1;jettySize=auto;html=1;exitX=0;exitY=0.5;exitDx=0;exitDy=0;entryX=1;entryY=0.5;entryDx=0;entryDy=0;strokeColor=#457B9D;align=center;verticalAlign=middle;fontFamily=Helvetica;fontSize=11;fontColor=default;labelBackgroundColor=none;endArrow=none;endFill=0;" edge="1" parent="1" source="GAKkH_xGqtzqrPNIRhfc-73" target="GAKkH_xGqtzqrPNIRhfc-69">
          <mxGeometry relative="1" as="geometry" />
        </mxCell>
        <mxCell id="GAKkH_xGqtzqrPNIRhfc-73" value="dex_mod" style="ellipse;whiteSpace=wrap;html=1;align=center;rounded=0;labelBackgroundColor=none;fillColor=#60a917;strokeColor=#2D7600;fontColor=#ffffff;" vertex="1" parent="1">
          <mxGeometry x="2334" y="355" width="100" height="40" as="geometry" />
        </mxCell>
        <mxCell id="GAKkH_xGqtzqrPNIRhfc-81" value="Skills" style="whiteSpace=wrap;html=1;align=center;rounded=0;labelBackgroundColor=none;fillColor=#d80073;strokeColor=#A50040;fontColor=#ffffff;" vertex="1" parent="1">
          <mxGeometry x="1833" y="420" width="100" height="40" as="geometry" />
        </mxCell>
        <mxCell id="GAKkH_xGqtzqrPNIRhfc-88" style="edgeStyle=none;shape=connector;rounded=0;orthogonalLoop=1;jettySize=auto;html=1;exitX=0.5;exitY=1;exitDx=0;exitDy=0;entryX=0.5;entryY=0;entryDx=0;entryDy=0;strokeColor=#457B9D;align=center;verticalAlign=middle;fontFamily=Helvetica;fontSize=11;fontColor=default;labelBackgroundColor=none;endArrow=none;endFill=0;" edge="1" parent="1" source="GAKkH_xGqtzqrPNIRhfc-82" target="GAKkH_xGqtzqrPNIRhfc-81">
          <mxGeometry relative="1" as="geometry" />
        </mxCell>
        <mxCell id="GAKkH_xGqtzqrPNIRhfc-82" value="id" style="ellipse;whiteSpace=wrap;html=1;align=center;fontStyle=4;rounded=0;labelBackgroundColor=none;fillColor=#6a00ff;strokeColor=#3700CC;fontColor=#ffffff;" vertex="1" parent="1">
          <mxGeometry x="1719" y="370" width="100" height="40" as="geometry" />
        </mxCell>
        <mxCell id="GAKkH_xGqtzqrPNIRhfc-90" style="edgeStyle=none;shape=connector;rounded=0;orthogonalLoop=1;jettySize=auto;html=1;exitX=0.5;exitY=1;exitDx=0;exitDy=0;entryX=0.5;entryY=0;entryDx=0;entryDy=0;strokeColor=#457B9D;align=center;verticalAlign=middle;fontFamily=Helvetica;fontSize=11;fontColor=default;labelBackgroundColor=none;endArrow=none;endFill=0;" edge="1" parent="1" source="GAKkH_xGqtzqrPNIRhfc-84" target="GAKkH_xGqtzqrPNIRhfc-81">
          <mxGeometry relative="1" as="geometry" />
        </mxCell>
        <mxCell id="GAKkH_xGqtzqrPNIRhfc-84" value="description" style="ellipse;whiteSpace=wrap;html=1;align=center;rounded=0;labelBackgroundColor=none;fillColor=#60a917;strokeColor=#2D7600;fontColor=#ffffff;" vertex="1" parent="1">
          <mxGeometry x="1929" y="370" width="100" height="40" as="geometry" />
        </mxCell>
        <mxCell id="GAKkH_xGqtzqrPNIRhfc-89" style="edgeStyle=none;shape=connector;rounded=0;orthogonalLoop=1;jettySize=auto;html=1;exitX=0.5;exitY=1;exitDx=0;exitDy=0;entryX=0.5;entryY=0;entryDx=0;entryDy=0;strokeColor=#457B9D;align=center;verticalAlign=middle;fontFamily=Helvetica;fontSize=11;fontColor=default;labelBackgroundColor=none;endArrow=none;endFill=0;" edge="1" parent="1" source="GAKkH_xGqtzqrPNIRhfc-85" target="GAKkH_xGqtzqrPNIRhfc-81">
          <mxGeometry relative="1" as="geometry">
            <mxPoint x="1783" y="400" as="sourcePoint" />
          </mxGeometry>
        </mxCell>
        <mxCell id="GAKkH_xGqtzqrPNIRhfc-85" value="name" style="ellipse;whiteSpace=wrap;html=1;align=center;rounded=0;labelBackgroundColor=none;fillColor=#60a917;strokeColor=#2D7600;fontColor=#ffffff;" vertex="1" parent="1">
          <mxGeometry x="1833" y="330" width="100" height="40" as="geometry" />
        </mxCell>
        <mxCell id="GAKkH_xGqtzqrPNIRhfc-99" value="properties" style="ellipse;shape=doubleEllipse;margin=3;whiteSpace=wrap;html=1;align=center;fontFamily=Helvetica;fontSize=11;fontColor=#ffffff;labelBackgroundColor=none;fillColor=#a20025;strokeColor=#6F0000;" vertex="1" parent="1">
          <mxGeometry x="2359" y="170" width="100" height="40" as="geometry" />
        </mxCell>
        <mxCell id="GAKkH_xGqtzqrPNIRhfc-101" value="id, id, id, ..." style="ellipse;whiteSpace=wrap;html=1;align=center;rounded=0;labelBackgroundColor=none;fillColor=#008a00;strokeColor=#005700;fontColor=#ffffff;" vertex="1" parent="1">
          <mxGeometry x="1190" y="290" width="100" height="40" as="geometry" />
        </mxCell>
        <mxCell id="GAKkH_xGqtzqrPNIRhfc-105" style="edgeStyle=none;shape=connector;rounded=0;orthogonalLoop=1;jettySize=auto;html=1;exitX=0.5;exitY=0;exitDx=0;exitDy=0;entryX=0.5;entryY=1;entryDx=0;entryDy=0;strokeColor=#457B9D;align=center;verticalAlign=middle;fontFamily=Helvetica;fontSize=11;fontColor=default;labelBackgroundColor=none;endArrow=none;endFill=0;" edge="1" parent="1" source="GAKkH_xGqtzqrPNIRhfc-102" target="peprseL-71aU9R8MaZxs-11">
          <mxGeometry relative="1" as="geometry" />
        </mxCell>
        <mxCell id="GAKkH_xGqtzqrPNIRhfc-102" value="health" style="ellipse;whiteSpace=wrap;html=1;align=center;rounded=0;labelBackgroundColor=none;fillColor=#60a917;strokeColor=#2D7600;fontColor=#ffffff;" vertex="1" parent="1">
          <mxGeometry x="434" y="800" width="100" height="40" as="geometry" />
        </mxCell>
        <mxCell id="GAKkH_xGqtzqrPNIRhfc-104" style="edgeStyle=none;shape=connector;rounded=0;orthogonalLoop=1;jettySize=auto;html=1;exitX=0.5;exitY=0;exitDx=0;exitDy=0;entryX=0.5;entryY=1;entryDx=0;entryDy=0;strokeColor=#457B9D;align=center;verticalAlign=middle;fontFamily=Helvetica;fontSize=11;fontColor=default;labelBackgroundColor=none;endArrow=none;endFill=0;" edge="1" parent="1" source="GAKkH_xGqtzqrPNIRhfc-103" target="peprseL-71aU9R8MaZxs-11">
          <mxGeometry relative="1" as="geometry" />
        </mxCell>
        <mxCell id="GAKkH_xGqtzqrPNIRhfc-103" value="sanity" style="ellipse;whiteSpace=wrap;html=1;align=center;rounded=0;labelBackgroundColor=none;fillColor=#60a917;strokeColor=#2D7600;fontColor=#ffffff;" vertex="1" parent="1">
          <mxGeometry x="540" y="800" width="100" height="40" as="geometry" />
        </mxCell>
        <mxCell id="GAKkH_xGqtzqrPNIRhfc-106" value="dice" style="ellipse;whiteSpace=wrap;html=1;align=center;rounded=0;labelBackgroundColor=none;fillColor=#60a917;strokeColor=#2D7600;fontColor=#ffffff;" vertex="1" parent="1">
          <mxGeometry x="2370" y="230" width="100" height="40" as="geometry" />
        </mxCell>
        <mxCell id="GAKkH_xGqtzqrPNIRhfc-109" style="edgeStyle=none;shape=connector;rounded=0;orthogonalLoop=1;jettySize=auto;html=1;exitX=0.5;exitY=0;exitDx=0;exitDy=0;entryX=0.5;entryY=1;entryDx=0;entryDy=0;strokeColor=#457B9D;align=center;verticalAlign=middle;fontFamily=Helvetica;fontSize=11;fontColor=default;labelBackgroundColor=none;endArrow=none;endFill=0;" edge="1" parent="1" source="GAKkH_xGqtzqrPNIRhfc-108" target="GAKkH_xGqtzqrPNIRhfc-69">
          <mxGeometry relative="1" as="geometry" />
        </mxCell>
        <mxCell id="GAKkH_xGqtzqrPNIRhfc-108" value="value" style="ellipse;whiteSpace=wrap;html=1;align=center;rounded=0;labelBackgroundColor=none;fillColor=#60a917;strokeColor=#2D7600;fontColor=#ffffff;" vertex="1" parent="1">
          <mxGeometry x="2190" y="470" width="100" height="40" as="geometry" />
        </mxCell>
      </root>
    </mxGraphModel>
  </diagram>
</mxfile>
